<?xml version="1.0" encoding="utf-8"?>
<!-- Generator: Adobe Illustrator 19.2.1, SVG Export Plug-In . SVG Version: 6.00 Build 0)  -->
<svg version="1.2" baseProfile="tiny" id="svg2" xmlns:svg="http://www.w3.org/2000/svg"
	 xmlns="http://www.w3.org/2000/svg" xmlns:xlink="http://www.w3.org/1999/xlink" x="0px" y="0px" viewBox="0 0 138 105"
	 xml:space="preserve">
<polygon fill="none" stroke="#333C51" stroke-miterlimit="10" points="69,102 36.5,37 68.5,37 69,37.5 69.5,37 102,37 "/>
<polygon fill="none" stroke="#333C51" stroke-miterlimit="10" points="65.1,33.6 51.4,19.9 37.8,33.6 "/>
<path fill="none" stroke="#2E9357" stroke-miterlimit="10" d="M103.2,31.9V1.7H72.5c4.3,1.6,11.3,4.9,18.1,11.5
	C97.9,20.2,101.5,27.6,103.2,31.9z"/>
<polygon fill="none" stroke="#333C51" stroke-miterlimit="10" points="100.7,33.6 86.8,19.9 73,33.6 "/>
<polygon fill="none" stroke="#333C51" stroke-miterlimit="10" points="69,33.4 84.7,17.9 69,2.4 53.5,17.9 "/>
<polygon fill="none" stroke="#333C51" stroke-miterlimit="10" points="105.3,37 74.5,97.8 135.3,37 "/>
<path fill="none" stroke="#724A8E" stroke-miterlimit="10" d="M106.1,33.6h29.3c-0.5-3.3-2.2-10.9-8.4-18
	c-7.9-9.1-17.8-11.3-20.9-11.8c1,1,7.1,12.4,7.1,21C113.2,33.3,107.1,32.6,106.1,33.6z"/>
<polygon fill="none" stroke="#333C51" stroke-miterlimit="10" points="32.4,33.6 32.4,3.7 2.7,33.6 "/>
<polygon fill="none" stroke="#333C51" stroke-miterlimit="10" points="33.2,37 2.7,37 63.7,97.9 "/>
<polygon fill="none" stroke="#333C51" stroke-miterlimit="10" points="35.3,1.7 35.3,31.9 65.6,1.7 "/>
<circle fill="none" stroke="#C8D115" stroke-miterlimit="10" cx="69" cy="58.3" r="14.2"/>
<polyline fill="none" stroke="#333C51" stroke-miterlimit="10" points="120.8,64.1 120.8,104 24,104 24,64.1 "/>
</svg>
